<svg xmlns="http://www.w3.org/2000/svg" width="224" height="28" viewBox="0 0 224 28">
  <defs>
    <style>
      .cls-1 {
        fill: #87c847;
      }

      .cls-1, .cls-2 {
        fill-rule: evenodd;
      }

      .cls-2 {
        fill: #fbc531;
      }
    </style>
  </defs>
  <path id="eLeave" class="cls-1" d="M-0.12,17.322C-0.12,23.361,4,27.48,9.718,27.48A10.493,10.493,0,0,0,17.4,24.52l-1.44-1.96A8.443,8.443,0,0,1,10,25a6.807,6.807,0,0,1-6.959-6.679H18.677v-0.76c0-5.8-3.439-10.358-9.278-10.358C3.879,7.2-.12,11.723-0.12,17.322ZM9.358,9.683a6.261,6.261,0,0,1,6.359,6.439H3.039C3.2,13.162,5.239,9.683,9.358,9.683ZM23.639,27H39.356V24.041h-12.4V0.324h-3.32V27Zm18.32-9.678c0,6.039,4.119,10.158,9.838,10.158a10.493,10.493,0,0,0,7.679-2.96l-1.44-1.96A8.443,8.443,0,0,1,52.078,25a6.807,6.807,0,0,1-6.959-6.679H60.756v-0.76c0-5.8-3.439-10.358-9.278-10.358C45.959,7.2,41.959,11.723,41.959,17.322Zm9.478-7.639A6.261,6.261,0,0,1,57.8,16.122H45.119C45.279,13.162,47.318,9.683,51.438,9.683ZM77.677,27h3V13.722c0-4.679-3.4-6.519-7.479-6.519a10.112,10.112,0,0,0-7.719,3.2l1.4,2.08A7.673,7.673,0,0,1,72.8,9.8c2.8,0,4.879,1.48,4.879,4.079v3.479a8.077,8.077,0,0,0-6.4-2.639c-3.279,0-6.759,2.04-6.759,6.359,0,4.2,3.479,6.4,6.759,6.4a8.356,8.356,0,0,0,6.4-2.68V27Zm0-4.079a6.469,6.469,0,0,1-5.319,2.4c-2.8,0-4.759-1.76-4.759-4.2,0-2.48,1.96-4.239,4.759-4.239a6.469,6.469,0,0,1,5.319,2.4v3.639ZM91.837,27h3.279l8.038-19.317H99.876l-6.4,15.837L87.038,7.683H83.8Zm13.321-9.678c0,6.039,4.119,10.158,9.838,10.158a10.494,10.494,0,0,0,7.679-2.96l-1.44-1.96A8.441,8.441,0,0,1,115.276,25a6.807,6.807,0,0,1-6.959-6.679h15.638v-0.76c0-5.8-3.44-10.358-9.279-10.358C109.157,7.2,105.158,11.723,105.158,17.322Zm9.478-7.639A6.261,6.261,0,0,1,121,16.122H108.317C108.477,13.162,110.517,9.683,114.636,9.683Z"/>
  <path id="Track" class="cls-2" d="M134.8,27h5.719V5.324h7.758v-5H127v5h7.8V27Zm14.28,0h5.079V14.242a6.439,6.439,0,0,1,4.76-2.16,6.736,6.736,0,0,1,1.4.12V7.243a8.265,8.265,0,0,0-6.159,3.079V7.683h-5.079V27Zm26,0h5.079V14.522c0-5.559-4.039-7.319-8.439-7.319a12.67,12.67,0,0,0-8.438,3.039l1.919,3.4a8.129,8.129,0,0,1,5.639-2.28c2.56,0,4.24,1.28,4.24,3.239v2.68a7.808,7.808,0,0,0-6.119-2.36c-3.08,0-6.719,1.64-6.719,6.159,0,4.319,3.639,6.4,6.719,6.4A8,8,0,0,0,175.077,25v2Zm0-4.639a5.081,5.081,0,0,1-4.08,1.68c-2,0-3.639-1.04-3.639-2.84,0-1.84,1.64-2.919,3.639-2.919a5.081,5.081,0,0,1,4.08,1.68v2.4Zm8.882-5.039A9.808,9.808,0,0,0,194.2,27.48c3.959,0,6.359-1.72,7.639-3.519l-3.32-3.079a4.873,4.873,0,0,1-4.079,2.08c-3.079,0-5.239-2.28-5.239-5.639s2.16-5.6,5.239-5.6a4.775,4.775,0,0,1,4.079,2.08l3.32-3.079c-1.28-1.8-3.68-3.519-7.639-3.519C188.238,7.2,183.959,11.4,183.959,17.322ZM217.676,27h6.359l-7.878-10.558L223.8,7.683h-6.239l-7.318,8.6V0.324h-5.08V27h5.08V22.041l2.319-2.48Z"/>
</svg>
