<?xml version="1.0" encoding="utf-8"?>
<!-- Generator: Adobe Illustrator 23.0.1, SVG Export Plug-In . SVG Version: 6.00 Build 0)  -->
<svg version="1.1" id="Layer_1" xmlns="http://www.w3.org/2000/svg" xmlns:xlink="http://www.w3.org/1999/xlink" x="0px" y="0px"
	 viewBox="0 0 121 19" style="enable-background:new 0 0 121 19;" xml:space="preserve">
<style type="text/css">
	.st0{fill-rule:evenodd;clip-rule:evenodd;fill:#EF2727;}
	.st1{fill:#EF2727;}
	.st2{fill:#6E8EB1;}
</style>
<g>
	<path class="st0" d="M4.9,4C6.4,4,8,4,9.5,4c0.7,0.1,1.3,0.2,1.8,0.6c0.4,0.3,0.9,0.8,1,1.4c0.1,0.3,0,0.8,0,1.2c0,1.2,0,2.4,0,3.6
		c-2.3,0-4.6,0-6.9,0c0,0.6,0,1.2,0,1.9c0,0.6-0.1,1.3,0,1.9c0.1,0.6,0.6,1,1.2,1.1c0.9,0.1,1.9-0.1,2-0.8c0.1-0.4,0-1,0-1.5
		c0-0.5,0-1,0-1.5c1.2,0,2.4,0,3.6,0c0,0.5,0,1.1,0,1.6c0,0.6,0.1,1.2,0,1.6c-0.2,0.9-0.9,1.4-1.7,1.6c-0.9,0.3-1.9,0.3-2.9,0.4
		c-0.6,0-1.2,0-1.7,0C4,17,1.9,16.7,1.8,15c0-3,0-6.1,0-9.1C1.8,4.7,3.3,4,4.9,4z M8.8,7.7c0-0.4,0.1-1,0-1.4c-0.2-1-2-1.1-2.9-0.6
		C5.8,5.9,5.5,6.1,5.5,6.3c0,0.2,0,0.5,0,0.7c0,0.7,0,1.4,0,2.1c1.1,0,2.2,0,3.4,0C8.8,8.6,8.8,8.2,8.8,7.7z"/>
	<g>
		<path class="st1" d="M24.2,17.3H16V1.4h1.6v14.5h6.6V17.3z"/>
		<path class="st1" d="M28.3,14.2c0,1.3,0.8,1.9,2.3,1.9c0.9,0,2-0.3,3.1-0.9l0.6,1.3c-1.2,0.7-2.4,1.1-3.7,1.1c-2.6,0-4-1.1-4-3.3
			V9.6c0-1.2,0.4-2.2,1.1-2.9c0.8-0.7,1.8-1,3-1s2.2,0.3,2.9,1c0.7,0.7,1.1,1.6,1.1,2.8v3.1L28.3,13V14.2z M33.2,11.2V9.5
			c0-0.8-0.3-1.4-0.8-1.7c-0.5-0.3-1.1-0.5-1.8-0.5c-0.7,0-1.2,0.2-1.7,0.6c-0.5,0.4-0.7,1-0.7,1.8v1.8L33.2,11.2z"/>
		<path class="st1" d="M38.3,11.6c0-2.3,1.2-3.4,3.5-3.4c0.3,0,0.7,0,1,0.1c1.1,0.2,2,0.5,2.6,1c0-1.6-1.1-2.3-3.2-2.3l0.1-1.2
			c1.2,0,2.1,0.1,2.7,0.4c0.3,0.2,0.6,0.3,0.8,0.5c0.2,0.2,0.4,0.4,0.6,0.7c0.1,0.3,0.3,0.5,0.3,0.7C46.9,8.3,47,8.5,47,8.9
			c0,0.5,0.1,1.1,0.1,1.7v6.8c-1.6,0.2-2.8,0.2-3.8,0.2c-3.3,0-5-1.4-5-4.1V11.6z M45.5,15.9v-5.2c-1-0.5-2.1-0.9-3.3-1
			c-0.1,0-0.2,0-0.3,0c-0.5,0-0.9,0.1-1.3,0.4C40.1,10.5,40,11,40,11.7v1.8c0,1.7,1.2,2.6,3.6,2.6C44.1,16.1,44.7,16,45.5,15.9z"/>
		<path class="st1" d="M54.8,17.3h-2L49.3,5.9H51l2.8,9.2l2.8-9.2h1.8L54.8,17.3z"/>
		<path class="st1" d="M62.1,14.2c0,1.3,0.8,1.9,2.3,1.9c0.9,0,2-0.3,3.1-0.9l0.6,1.3c-1.2,0.7-2.4,1.1-3.7,1.1c-2.6,0-4-1.1-4-3.3
			V9.6c0-1.2,0.4-2.2,1.1-2.9c0.8-0.7,1.8-1,3-1c1.3,0,2.2,0.3,2.9,1c0.7,0.7,1.1,1.6,1.1,2.8v3.1L62.1,13V14.2z M67,11.2V9.5
			c0-0.8-0.3-1.4-0.8-1.7c-0.5-0.3-1.1-0.5-1.8-0.5c-0.7,0-1.2,0.2-1.7,0.6c-0.5,0.4-0.7,1-0.7,1.8v1.8L67,11.2z"/>
	</g>
	<g>
		<path class="st2" d="M76.6,17.3H75V2.9h-3.7V1.4h9.2v1.5h-3.8V17.3z"/>
		<path class="st2" d="M83,17.3h-1.6V5.9H83v0.6c0.7-0.5,1.5-0.8,2.6-0.8c0.5,0,1.1,0.1,1.7,0.2l-0.4,1.5c-0.5-0.2-1.1-0.3-1.7-0.3
			c-0.6,0-1.1,0.1-1.5,0.4S83,8.4,83,8.9V17.3z"/>
		<path class="st2" d="M88.1,11.6c0-2.3,1.2-3.4,3.5-3.4c0.3,0,0.7,0,1,0.1c1.1,0.2,2,0.5,2.6,1c0-1.6-1.1-2.3-3.2-2.3l0.1-1.2
			c1.2,0,2.1,0.1,2.7,0.4c0.3,0.2,0.6,0.3,0.8,0.5c0.2,0.2,0.4,0.4,0.6,0.7c0.1,0.3,0.3,0.5,0.3,0.7c0.1,0.2,0.2,0.5,0.2,0.8
			c0,0.5,0.1,1.1,0.1,1.7v6.8c-1.6,0.2-2.8,0.2-3.8,0.2c-3.3,0-5-1.4-5-4.1V11.6z M95.3,15.9v-5.2c-1-0.5-2.1-0.9-3.3-1
			c-0.1,0-0.2,0-0.3,0c-0.5,0-0.9,0.1-1.3,0.4c-0.4,0.3-0.5,0.8-0.5,1.5v1.8c0,1.7,1.2,2.6,3.6,2.6C93.9,16.1,94.6,16,95.3,15.9z"/>
		<path class="st2" d="M105.1,16c0.7,0,1.4-0.1,2.1-0.3l0.4,1.5c-1,0.3-1.9,0.4-2.6,0.4c-0.8,0-1.6-0.1-2.3-0.4
			c-1.6-0.5-2.4-1.8-2.4-4v-2.9c0-1.1,0.2-2,0.6-2.7c0.7-1.3,1.9-1.9,3.6-1.9c1,0,2,0.2,3.1,0.7l-0.5,1.3c-0.9-0.3-1.7-0.5-2.5-0.5
			c-0.8,0-1.5,0.3-1.9,0.8c-0.5,0.5-0.7,1.2-0.7,2.2v3.3C101.9,15.2,103,16,105.1,16z"/>
		<path class="st2" d="M119.2,17.3h-2l-4.1-6.8l-0.9,0.8v6h-1.6V1.4h1.6v8l4.2-3.9l1.2,1.1l-3.3,2.8
			C115.4,11.3,117.1,13.9,119.2,17.3z"/>
	</g>
</g>
</svg>
